<?xml version="1.0" encoding="UTF-8" standalone="no"?>
<svg
   xmlns:dc="http://purl.org/dc/elements/1.1/"
   xmlns:cc="http://creativecommons.org/ns#"
   xmlns:rdf="http://www.w3.org/1999/02/22-rdf-syntax-ns#"
   xmlns:svg="http://www.w3.org/2000/svg"
   xmlns="http://www.w3.org/2000/svg"
   viewBox="0 0 75.590668 75.590668"
   height="75.590668"
   width="75.590668"
   xml:space="preserve"
   id="svg2"
   version="1.1"><metadata
     id="metadata8"><rdf:RDF><cc:Work
         rdf:about=""><dc:format>image/svg+xml</dc:format><dc:type
           rdf:resource="http://purl.org/dc/dcmitype/StillImage" /></cc:Work></rdf:RDF></metadata><defs
     id="defs6" /><g
     transform="matrix(1.3333333,0,0,-1.3333333,0,75.590667)"
     id="g10"><g
       id="g12"><g
         id="g14"><g
           id="g16"><path
             id="path18"
             style="fill:#ffbf80;fill-opacity:1;fill-rule:nonzero;stroke:none"
             d="m 0,3.9851 v 48.72341 c 0,2.20094 1.78416,3.98511 3.9851,3.98511 h 48.72341 c 2.20094,0 3.98511,-1.78417 3.98511,-3.98511 V 3.9851 C 56.69362,1.78416 54.90945,0 52.70851,0 H 3.9851 C 1.78416,0 0,1.78416 0,3.9851 Z" /></g><g
           id="g20"><g
             id="g22"><g
               id="g24"><path
                 id="path26"
                 style="fill:#8f8569;fill-opacity:1;fill-rule:nonzero;stroke:none"
                 d="m 43.37057,9.92155 c 0,-15.87457 -5.9526,-17.85862 -15.02377,-17.85862 -9.07117,0 -15.02376,1.98405 -15.02376,17.85862 0,15.87415 5.95259,28.91343 15.02376,28.91343 9.3545,0 15.02377,-13.03928 15.02377,-28.91343 z" /></g><g
               id="g28"><path
                 id="path30"
                 style="fill:#c2baa3;fill-opacity:1;fill-rule:nonzero;stroke:none"
                 d="m 38.55167,6.80338 c 0,-7.08669 -3.96854,-9.35448 -10.20487,-9.35448 -6.23633,0 -10.20486,2.26779 -10.20486,9.35448 0,7.37002 3.96853,11.9056 10.20486,11.9056 6.23633,0 10.20487,-4.53558 10.20487,-11.9056 z" /></g><g
               id="g32"><path
                 id="path34"
                 style="fill:#a89c7b;fill-opacity:1;fill-rule:nonzero;stroke:none"
                 d="m 25.14949,44.5726 c 0,0 -1.05193,4.54944 0.44206,5.10524 -0.31187,-3.42137 2.62205,-4.77954 2.62205,-4.77954 0,0 -0.48748,2.91141 0.5441,3.1013 -0.0082,-2.19383 1.77167,-2.9737 1.77167,-2.9737 z" /></g><g
               id="g36"><path
                 id="path38"
                 style="fill:#a89c7b;fill-opacity:1;fill-rule:nonzero;stroke:none"
                 d="m 42.5202,33.16571 c 0,6.80339 -6.51964,12.18936 -14.1734,12.18936 -7.65375,0 -14.1734,-5.38597 -14.1734,-12.18936 0,-6.80339 4.81891,-11.05525 14.1734,-11.05525 9.3545,0 14.1734,4.25186 14.1734,11.05525 z" /></g><g
               id="g40"><path
                 id="path42"
                 style="fill:#d3cebd;fill-opacity:1;fill-rule:nonzero;stroke:none"
                 d="m 39.68535,33.16571 c 0,6.51964 -7.93707,11.90561 -11.33855,7.37001 -3.40147,4.5356 -11.33854,-0.85037 -11.33854,-7.37001 0,-6.23634 4.25186,-8.22038 11.33854,-8.22038 7.08669,0 11.33855,1.98404 11.33855,8.22038 z" /></g><g
               id="g44"><path
                 id="path46"
                 style="fill:#655e4a;fill-opacity:1;fill-rule:nonzero;stroke:none"
                 d="m 39.0759,29.29926 c -2.19124,1.49656 -5.54427,3.84655 -6.82588,5.38034 -0.54717,0.65182 0.70028,2.85733 1.49961,2.55975 2.17437,-0.81101 4.79338,-2.86902 5.91884,-4.55246 0.3828,-0.57571 -0.59257,-3.38763 -0.59257,-3.38763 z" /></g><g
               id="g48"><path
                 id="path50"
                 style="fill:#655e4a;fill-opacity:1;fill-rule:nonzero;stroke:none"
                 d="m 17.6177,29.29926 c 2.19124,1.49656 5.54427,3.84655 6.82589,5.38034 0.54716,0.65182 -0.70029,2.85733 -1.49962,2.55975 -2.17437,-0.81101 -4.79338,-2.86902 -5.91884,-4.55246 -0.3828,-0.57571 0.59257,-3.38763 0.59257,-3.38763 z" /></g><g
               id="g52"><path
                 id="path54"
                 style="fill:#000000;fill-opacity:1;fill-rule:nonzero;stroke:none"
                 d="m 34.95122,35.4335 c 0,0.62612 -0.50757,1.13368 -1.13368,1.13368 -0.6261,0 -1.13367,-0.50756 -1.13367,-1.13368 0,-0.6261 0.50757,-1.13366 1.13367,-1.13366 0.62611,0 1.13368,0.50756 1.13368,1.13366 z" /></g><g
               id="g56"><path
                 id="path58"
                 style="fill:#000000;fill-opacity:1;fill-rule:nonzero;stroke:none"
                 d="m 24.00974,35.4335 c 0,0.62612 -0.50756,1.13368 -1.13367,1.13368 -0.62612,0 -1.13367,-0.50756 -1.13367,-1.13368 0,-0.6261 0.50755,-1.13366 1.13367,-1.13366 0.62611,0 1.13367,0.50756 1.13367,1.13366 z" /></g><g
               id="g60"><path
                 id="path62"
                 style="fill:#ffffff;fill-opacity:1;fill-rule:nonzero;stroke:none"
                 d="m 22.8475,35.85869 c 0,0.09387 -0.07609,0.16998 -0.16996,0.16998 -0.09389,0 -0.16999,-0.07611 -0.16999,-0.16998 0,-0.09387 0.0761,-0.16997 0.16999,-0.16997 0.09387,0 0.16996,0.0761 0.16996,0.16997 z" /></g><g
               id="g64"><path
                 id="path66"
                 style="fill:#ffffff;fill-opacity:1;fill-rule:nonzero;stroke:none"
                 d="m 33.7894,35.85869 c 0,0.09387 -0.0761,0.16998 -0.16997,0.16998 -0.09387,0 -0.16998,-0.07611 -0.16998,-0.16998 0,-0.09387 0.07611,-0.16997 0.16998,-0.16997 0.09387,0 0.16997,0.0761 0.16997,0.16997 z" /></g><g
               id="g68"><path
                 id="path70"
                 style="fill:#433e31;fill-opacity:1;fill-rule:nonzero;stroke:none"
                 d="m 30.55792,33.02385 c 0,0.75153 -0.98994,1.36075 -2.21112,1.36075 -1.22117,0 -2.21112,-0.60922 -2.21112,-1.36075 0,-0.75153 0.98995,-1.36076 2.21112,-1.36076 1.22118,0 2.21112,0.60923 2.21112,1.36076 z" /></g><g
               id="g72"><path
                 id="path74"
                 style="fill:none;stroke:#433e31;stroke-width:0.3985;stroke-linecap:butt;stroke-linejoin:miter;stroke-miterlimit:10;stroke-dasharray:none;stroke-opacity:1"
                 d="m 31.60684,29.76424 c -1.04143,-1.24109 -2.66641,-1.83261 -4.26199,-1.55129 -1.05,0.18512 -2.00155,0.73458 -2.68685,1.55129" /></g><g
               id="g76"><path
                 id="path78"
                 style="fill:#a89c7b;fill-opacity:1;fill-rule:nonzero;stroke:none"
                 d="m 14.1734,20.97679 c -1.13368,0 -1.41743,-1.13411 -1.70073,-1.98448 -1.41743,-3.11816 -1.98448,-6.23634 -2.26781,-9.63783 0,-0.85036 0,-1.70073 0.28333,-2.5511 1.70073,-2.2678 4.53558,-3.96854 7.08668,-5.10265 1.9845,-0.56705 4.25229,-1.13367 6.23635,-0.56705 1.13411,0 1.70073,1.41742 0.85037,1.98448 -1.13369,1.98406 -3.11818,3.40148 -4.81891,4.53559 -1.1337,0.56662 -2.26781,1.13368 -3.40147,1.70073 0.28329,2.55113 0.28329,5.10223 0,7.37002 -0.28333,1.41742 -0.56706,2.83486 -1.70075,3.96855 0,0.28374 -0.28373,0.28374 -0.56706,0.28374 z" /></g><g
               id="g80"><path
                 id="path82"
                 style="fill:#a89c7b;fill-opacity:1;fill-rule:nonzero;stroke:none"
                 d="m 42.5202,20.97679 c 1.13368,0 1.41744,-1.13411 1.70073,-1.98448 1.41744,-3.11816 1.98448,-6.23634 2.26781,-9.63783 0,-0.85036 0,-1.70073 -0.28333,-2.5511 -1.70073,-2.2678 -4.53558,-3.96854 -7.08668,-5.10265 -1.9845,-0.56705 -4.25229,-1.13367 -6.23634,-0.56705 -1.13411,0 -1.70073,1.41742 -0.85038,1.98448 1.1337,1.98406 3.11818,3.40148 4.81891,4.53559 1.1337,0.56662 2.26781,1.13368 3.40148,1.70073 -0.2833,2.55113 -0.2833,5.10223 0,7.37002 0.28332,1.41742 0.56706,2.83486 1.70074,3.96855 0,0.28374 0.28374,0.28374 0.56706,0.28374 z" /></g><g
               id="g84"><path
                 id="path86"
                 style="fill:#544e3d;fill-opacity:1;fill-rule:nonzero;stroke:none"
                 d="M 32.43385,3.57094 C 31.40393,3.19609 30.64284,2.68948 30.73383,2.43942 c 0.091,-0.25006 0.99969,-0.14888 2.0296,0.22597 1.02992,0.37485 1.79103,0.88145 1.70003,1.13151 -0.09101,0.25005 -0.99968,0.14889 -2.02961,-0.22596 z" /></g><g
               id="g88"><path
                 id="path90"
                 style="fill:#544e3d;fill-opacity:1;fill-rule:nonzero;stroke:none"
                 d="M 32.97269,2.36331 C 31.99614,1.86574 31.29094,1.29277 31.39754,1.08354 c 0.1066,-0.20923 0.98465,0.02452 1.96119,0.5221 0.97654,0.49757 1.68175,1.07054 1.57515,1.27976 -0.10659,0.20924 -0.98465,-0.02451 -1.96119,-0.52209 z" /></g><g
               id="g92"><path
                 id="path94"
                 style="fill:#544e3d;fill-opacity:1;fill-rule:nonzero;stroke:none"
                 d="m 33.53778,1.12883 c -0.79506,-0.5567 -1.35226,-1.13268 -1.24458,-1.28645 0.10766,-0.15378 0.83949,0.17282 1.63453,0.7295 0.79505,0.55671 1.35227,1.13269 1.24459,1.28647 -0.10767,0.1538 -0.8395,-0.17282 -1.63454,-0.72952 z" /></g><g
               id="g96"><path
                 id="path98"
                 style="fill:#544e3d;fill-opacity:1;fill-rule:nonzero;stroke:none"
                 d="m 23.93018,2.66539 c 1.0299,-0.37485 1.93859,-0.47603 2.0296,-0.22597 0.09099,0.25006 -0.67011,0.75667 -1.70003,1.13152 -1.02992,0.37485 -1.9386,0.47601 -2.0296,0.22596 -0.09101,-0.25006 0.6701,-0.75666 1.70003,-1.13151 z" /></g><g
               id="g100"><path
                 id="path102"
                 style="fill:#544e3d;fill-opacity:1;fill-rule:nonzero;stroke:none"
                 d="m 23.33488,1.60564 c 0.97654,-0.49758 1.85459,-0.73133 1.96119,-0.5221 0.10659,0.20923 -0.59861,0.7822 -1.57515,1.27977 -0.97655,0.49758 -1.8546,0.73133 -1.9612,0.52209 -0.1066,-0.20922 0.59862,-0.78219 1.57516,-1.27976 z" /></g><g
               id="g104"><path
                 id="path106"
                 style="fill:#544e3d;fill-opacity:1;fill-rule:nonzero;stroke:none"
                 d="m 22.76587,0.57188 c 0.79504,-0.55668 1.52687,-0.88328 1.63455,-0.7295 0.10767,0.15377 -0.44954,0.72975 -1.2446,1.28645 -0.79504,0.5567 -1.52687,0.88332 -1.63453,0.72952 -0.10769,-0.15378 0.44954,-0.72976 1.24458,-1.28647 z" /></g><g
               id="g108"><path
                 id="path110"
                 style="fill:#a89c7b;fill-opacity:1;fill-rule:nonzero;stroke:none"
                 d="m 44.12404,-2.39098 c -0.86015,1.84462 -4.43295,1.99906 -7.9802,0.34498 -3.54722,-1.6541 -5.72544,-4.49033 -4.86529,-6.33495 0.86015,-1.84462 4.43295,-1.99905 7.98019,-0.34495 3.54723,1.65408 5.72545,4.4903 4.8653,6.33492 z" /></g><g
               id="g112"><path
                 id="path114"
                 style="fill:#a89c7b;fill-opacity:1;fill-rule:nonzero;stroke:none"
                 d="m 25.41505,-8.38095 c 0.86015,1.84462 -1.31807,4.68085 -4.86529,6.33495 -3.54724,1.65408 -7.12004,1.49964 -7.9802,-0.34498 -0.86015,-1.84462 1.31807,-4.68084 4.8653,-6.33492 3.54724,-1.6541 7.12004,-1.49967 7.98019,0.34495 z" /></g><g
               id="g116"><path
                 id="path118"
                 style="fill:#544e3d;fill-opacity:1;fill-rule:nonzero;stroke:none"
                 d="m 26.75781,-7.0061 c 0.05165,0.29289 -0.78146,0.68461 -1.86084,0.8749 -1.07937,0.1903 -1.99621,0.10715 -2.04787,-0.18573 -0.05163,-0.29289 0.78148,-0.68461 1.86086,-0.8749 1.07936,-0.19031 1.99622,-0.10715 2.04785,0.18573 z" /></g><g
               id="g120"><path
                 id="path122"
                 style="fill:#544e3d;fill-opacity:1;fill-rule:nonzero;stroke:none"
                 d="m 26.28587,-8.76735 c 0.07333,0.2558 -0.72125,0.70805 -1.77479,1.01015 -1.05355,0.30209 -1.96706,0.33961 -2.04039,0.08381 -0.07334,-0.25581 0.72125,-0.70806 1.77478,-1.01016 1.05354,-0.30209 1.96707,-0.33961 2.0404,-0.0838 z" /></g><g
               id="g124"><path
                 id="path126"
                 style="fill:#544e3d;fill-opacity:1;fill-rule:nonzero;stroke:none"
                 d="m 25.65118,-10.23976 c 0.08797,0.21773 -0.6645,0.72705 -1.68069,1.13762 -1.01619,0.41055 -1.91129,0.56689 -1.99925,0.34916 -0.08795,-0.21771 0.66452,-0.72705 1.68071,-1.1376 1.01619,-0.41057 1.91128,-0.56689 1.99923,-0.34918 z" /></g><g
               id="g128"><path
                 id="path130"
                 style="fill:#544e3d;fill-opacity:1;fill-rule:nonzero;stroke:none"
                 d="m 33.8445,-6.31693 c -0.05165,0.29288 -0.9685,0.37603 -2.04787,0.18573 -1.07938,-0.19029 -1.91247,-0.58201 -1.86084,-0.8749 0.05164,-0.29288 0.96849,-0.37604 2.04785,-0.18573 1.07938,0.19029 1.91249,0.58201 1.86086,0.8749 z" /></g><g
               id="g132"><path
                 id="path134"
                 style="fill:#544e3d;fill-opacity:1;fill-rule:nonzero;stroke:none"
                 d="m 34.22292,-7.67339 c -0.07334,0.2558 -0.98685,0.21828 -2.04039,-0.08381 -1.05355,-0.3021 -1.84813,-0.75435 -1.7748,-1.01015 0.07333,-0.25581 0.98686,-0.21829 2.04041,0.0838 1.05354,0.3021 1.84811,0.75435 1.77478,1.01016 z" /></g><g
               id="g136"><path
                 id="path138"
                 style="fill:#544e3d;fill-opacity:1;fill-rule:nonzero;stroke:none"
                 d="m 34.72237,-8.75298 c -0.08797,0.21773 -0.98307,0.06139 -1.99926,-0.34916 -1.01619,-0.41057 -1.76866,-0.91989 -1.68069,-1.13762 0.08795,-0.21771 0.98305,-0.06139 1.99924,0.34918 1.01619,0.41055 1.76866,0.91989 1.68071,1.1376 z" /></g></g><g
             id="g140"><g
               id="g142"><g
                 id="g144"><path
                   id="path146"
                   style="fill:#000000;fill-opacity:1;fill-rule:nonzero;stroke:none"
                   d="m 40.02922,37.38406 c 0.40521,1.5123 -3.80194,3.95359 -9.39711,5.45279 -5.59515,1.49921 -10.45931,1.4886 -10.86451,-0.02371 -0.40522,-1.51231 3.80193,-3.9536 9.3971,-5.45279 5.59516,-1.4992 10.45931,-1.4886 10.86452,0.02371 z" /></g><g
                 id="g148"><path
                   id="path150"
                   style="fill:#000000;fill-opacity:1;fill-rule:nonzero;stroke:none"
                   d="m 19.7676,42.81314 1.46731,5.47611 20.26163,-5.4291 -1.46732,-5.4761 z" /></g><g
                 id="g152"><path
                   id="path154"
                   style="fill:#000000;fill-opacity:1;fill-rule:nonzero;stroke:none"
                   d="M 10.94772,49.6069 32.20782,52.44177 50.63309,41.10278 28.52261,38.26836 Z" /></g><g
                 id="g156"><path
                   id="path158"
                   style="fill:#990000;fill-opacity:1;fill-rule:nonzero;stroke:none"
                   d="m 33.72968,40.28455 -2.19375,4.18801 c -0.25528,0.48739 -0.0196,0.93779 0.52636,1.00597 l 0.29066,0.03637 c 0.54596,0.06818 1.19551,-0.27164 1.45079,-0.75904 l 2.19373,-4.188 c 0.25528,-0.4874 0.46222,-1.32856 0.46222,-1.87879 V 23.67381 c 0,-0.55024 -0.44605,-0.99627 -0.99628,-0.99627 h -0.27524 c -0.55025,0 -0.99627,0.44603 -0.99627,0.99627 v 14.73195 c 0,0.55025 -0.20696,1.3914 -0.46222,1.87879 z" /></g><g
                 id="g160"><path
                   id="path162"
                   style="fill:#990000;fill-opacity:1;fill-rule:nonzero;stroke:none"
                   d="m 37.02673,22.67754 c 0,1.87858 -0.76143,3.40146 -1.70073,3.40146 -0.9393,0 -1.70074,-1.52288 -1.70074,-3.40146 0,-1.87861 0.76144,-3.40148 1.70074,-3.40148 0.9393,0 1.70073,1.52287 1.70073,3.40148 z" /></g></g></g></g></g></g></g></svg>